# xmcd
#
# Track frame offsets:
#	150
#	10982
#	23012
#	35052
#	46920
#	57925
#	69357
#	82610
#	95010
#	106990
#	120587
#	132815
#	143707
#	157805
#	171150
#	183227
#	194977
#	208002
#	219757
#	231635
#	244777
#	256477
#	268047
#	279235
#	289292
#
# Disc length: 4008
#
# Revision: 1
# Processed by: cddbd v1.5.1PL0 Copyright (c) Steve Scherf et al.
# Submitted via: dBpowerAMP V4.0
# Normalized: r0:TDELIM( - )
#
DISCID=670fa619
DTITLE=Jubilee Jezebels - Vol. 2
DYEAR=1952
DGENRE=Jazz
TTITLE0=Edna McGriff - Ooh Little Daddy - 1952
TTITLE1=Edna McGriff - I'll Be Around - 1952
TTITLE2=Edna McGriff - These Things Shall Be - 1952
TTITLE3=Little Sylvia - I Found Somebody To Love - 1952
TTITLE4=Little Sylvia - A Kiss For My Baby - 1997
TTITLE5=Little Sylvia - I Miss You - 1997
TTITLE6=Little Sylvia - The Ring - 1953
TTITLE7=Little Sylvia - A Millions Tears - 1952
TTITLE8=Little Sylvia - Don'T Blame My Heart - 1952
TTITLE9=Viola Watkins - Paint A Sky For Me - 1952
TTITLE10=Gloria Mann - Goodnight Sweetheart Goodnight - 1954
TTITLE11=Gloria Mann - Love Me Boy - 1954
TTITLE12=The Enchanters - Today Is Your Birthday - 1952
TTITLE13=Gloria Alleyne - When I Say My Prayer - 1954
TTITLE14=Gloria Alleyne - The Uncloudy Day - 1954
TTITLE15=Petti Jerome - After The Lights Go Down Low - 1956
TTITLE16=Petti Jerome - Johnny Has Gone - 1955
TTITLE17=Della Reese - I Cried For You - 1957
TTITLE18=Ann Marie - Runaround - 1964
TTITLE19=Fay Simmons - I Can See Through You - 1957
TTITLE20=Fay Simmons - Hangin' Around - 1957
TTITLE21=Carol Fran - Crying In The Chapel - 1964
TTITLE22=Carol Fran - I'm Gonna Try - 1964
TTITLE23=Big Maybelle - Let Me Go - 1964
TTITLE24=Big Maybelle - No Better For You - 1964
EXTD=
EXTT0=
EXTT1=
EXTT2=
EXTT3=
EXTT4=
EXTT5=
EXTT6=
EXTT7=
EXTT8=
EXTT9=
EXTT10=
EXTT11=
EXTT12=
EXTT13=
EXTT14=
EXTT15=
EXTT16=
EXTT17=
EXTT18=
EXTT19=
EXTT20=
EXTT21=
EXTT22=
EXTT23=
EXTT24=
PLAYORDER=
